<svg width="573" height="40" viewBox="0 0 573 80" fill="none" xmlns="http://www.w3.org/2000/svg">
<g filter="url(#filter0_d_96_90)">
<path d="M38.8844 2.75V71H24.8687V2.75H38.8844ZM59.8844 2.75V13.7656H4.19687V2.75H59.8844ZM86.1062 20.2812V71H72.5594V20.2812H86.1062ZM71.7156 7.0625C71.7156 5.09375 72.4031 3.46875 73.7781 2.1875C75.1531 0.90625 76.9969 0.265625 79.3094 0.265625C81.5906 0.265625 83.4187 0.90625 84.7937 2.1875C86.2 3.46875 86.9031 5.09375 86.9031 7.0625C86.9031 9.03125 86.2 10.6563 84.7937 11.9375C83.4187 13.2187 81.5906 13.8594 79.3094 13.8594C76.9969 13.8594 75.1531 13.2187 73.7781 11.9375C72.4031 10.6563 71.7156 9.03125 71.7156 7.0625ZM115.562 30.7812V71H102.016V20.2812H114.719L115.562 30.7812ZM113.687 43.8594H109.937C109.937 40.3281 110.359 37.0781 111.203 34.1094C112.078 31.1094 113.344 28.5156 115 26.3281C116.687 24.1094 118.766 22.3906 121.234 21.1719C123.703 19.9531 126.562 19.3438 129.812 19.3438C132.062 19.3438 134.125 19.6875 136 20.375C137.875 21.0312 139.484 22.0781 140.828 23.5156C142.203 24.9219 143.266 26.7656 144.016 29.0469C144.766 31.2969 145.141 34 145.141 37.1562V71H131.641V38.6562C131.641 36.3438 131.328 34.5625 130.703 33.3125C130.078 32.0625 129.187 31.1875 128.031 30.6875C126.906 30.1875 125.547 29.9375 123.953 29.9375C122.203 29.9375 120.672 30.2969 119.359 31.0156C118.078 31.7344 117.016 32.7344 116.172 34.0156C115.328 35.2656 114.703 36.7344 114.297 38.4219C113.891 40.1094 113.687 41.9219 113.687 43.8594ZM143.875 42.3125L139.047 42.9219C139.047 39.6094 139.453 36.5312 140.266 33.6875C141.109 30.8438 142.344 28.3438 143.969 26.1875C145.625 24.0312 147.672 22.3594 150.109 21.1719C152.547 19.9531 155.359 19.3438 158.547 19.3438C160.984 19.3438 163.203 19.7031 165.203 20.4219C167.203 21.1094 168.906 22.2188 170.312 23.75C171.75 25.25 172.844 27.2188 173.594 29.6562C174.375 32.0938 174.766 35.0781 174.766 38.6094V71H161.219V38.6094C161.219 36.2656 160.906 34.4844 160.281 33.2656C159.687 32.0156 158.812 31.1562 157.656 30.6875C156.531 30.1875 155.187 29.9375 153.625 29.9375C152 29.9375 150.578 30.2656 149.359 30.9219C148.141 31.5469 147.125 32.4219 146.312 33.5469C145.5 34.6719 144.891 35.9844 144.484 37.4844C144.078 38.9531 143.875 40.5625 143.875 42.3125ZM213.362 71.9375C209.425 71.9375 205.894 71.3125 202.769 70.0625C199.644 68.7812 196.987 67.0156 194.8 64.7656C192.644 62.5156 190.987 59.9062 189.831 56.9375C188.675 53.9375 188.097 50.75 188.097 47.375V45.5C188.097 41.6562 188.644 38.1406 189.737 34.9531C190.831 31.7656 192.394 29 194.425 26.6562C196.487 24.3125 198.987 22.5156 201.925 21.2656C204.862 19.9844 208.175 19.3438 211.862 19.3438C215.456 19.3438 218.644 19.9375 221.425 21.125C224.206 22.3125 226.534 24 228.409 26.1875C230.316 28.375 231.753 31 232.722 34.0625C233.691 37.0938 234.175 40.4688 234.175 44.1875V49.8125H193.862V40.8125H220.909V39.7812C220.909 37.9062 220.566 36.2344 219.878 34.7656C219.222 33.2656 218.222 32.0781 216.878 31.2031C215.534 30.3281 213.816 29.8906 211.722 29.8906C209.941 29.8906 208.409 30.2812 207.128 31.0625C205.847 31.8438 204.8 32.9375 203.987 34.3438C203.206 35.75 202.612 37.4062 202.206 39.3125C201.831 41.1875 201.644 43.25 201.644 45.5V47.375C201.644 49.4062 201.925 51.2812 202.487 53C203.081 54.7188 203.909 56.2031 204.972 57.4531C206.066 58.7031 207.378 59.6719 208.909 60.3594C210.472 61.0469 212.237 61.3906 214.206 61.3906C216.644 61.3906 218.909 60.9219 221.003 59.9844C223.128 59.0156 224.956 57.5625 226.487 55.625L233.05 62.75C231.987 64.2812 230.534 65.75 228.691 67.1562C226.878 68.5625 224.691 69.7188 222.128 70.625C219.566 71.5 216.644 71.9375 213.362 71.9375ZM253.928 2.75H265.834L283.366 52.8594L300.897 2.75H312.803L288.147 71H278.584L253.928 2.75ZM247.506 2.75H259.366L261.522 51.5938V71H247.506V2.75ZM307.366 2.75H319.272V71H305.209V51.5938L307.366 2.75ZM362.931 59.5625V36.9688C362.931 35.3438 362.666 33.9531 362.134 32.7969C361.603 31.6094 360.775 30.6875 359.65 30.0312C358.556 29.375 357.134 29.0469 355.384 29.0469C353.884 29.0469 352.587 29.3125 351.494 29.8438C350.4 30.3438 349.556 31.0781 348.962 32.0469C348.369 32.9844 348.072 34.0938 348.072 35.375H334.572C334.572 33.2188 335.072 31.1719 336.072 29.2344C337.072 27.2969 338.525 25.5938 340.431 24.125C342.337 22.625 344.603 21.4531 347.228 20.6094C349.884 19.7656 352.853 19.3438 356.134 19.3438C360.072 19.3438 363.572 20 366.634 21.3125C369.697 22.625 372.103 24.5938 373.853 27.2188C375.634 29.8438 376.525 33.125 376.525 37.0625V58.7656C376.525 61.5469 376.697 63.8281 377.041 65.6094C377.384 67.3594 377.884 68.8906 378.541 70.2031V71H364.9C364.244 69.625 363.744 67.9062 363.4 65.8438C363.087 63.75 362.931 61.6562 362.931 59.5625ZM364.712 40.1094L364.806 47.75H357.259C355.478 47.75 353.931 47.9531 352.619 48.3594C351.306 48.7656 350.228 49.3438 349.384 50.0938C348.541 50.8125 347.916 51.6562 347.509 52.625C347.134 53.5938 346.947 54.6562 346.947 55.8125C346.947 56.9688 347.212 58.0156 347.744 58.9531C348.275 59.8594 349.041 60.5781 350.041 61.1094C351.041 61.6094 352.212 61.8594 353.556 61.8594C355.587 61.8594 357.353 61.4531 358.853 60.6406C360.353 59.8281 361.509 58.8281 362.322 57.6406C363.166 56.4531 363.603 55.3281 363.634 54.2656L367.197 59.9844C366.697 61.2656 366.009 62.5938 365.134 63.9688C364.291 65.3438 363.212 66.6406 361.9 67.8594C360.587 69.0469 359.009 70.0312 357.166 70.8125C355.322 71.5625 353.134 71.9375 350.603 71.9375C347.384 71.9375 344.462 71.2969 341.837 70.0156C339.244 68.7031 337.181 66.9062 335.65 64.625C334.15 62.3125 333.4 59.6875 333.4 56.75C333.4 54.0938 333.9 51.7344 334.9 49.6719C335.9 47.6094 337.369 45.875 339.306 44.4688C341.275 43.0312 343.728 41.9531 346.666 41.2344C349.603 40.4844 353.009 40.1094 356.884 40.1094H364.712ZM419.153 56.9844C419.153 56.0156 418.872 55.1406 418.309 54.3594C417.747 53.5781 416.7 52.8594 415.169 52.2031C413.669 51.5156 411.497 50.8906 408.653 50.3281C406.091 49.7656 403.7 49.0625 401.481 48.2188C399.294 47.3438 397.387 46.2969 395.762 45.0781C394.169 43.8594 392.919 42.4219 392.012 40.7656C391.106 39.0781 390.653 37.1562 390.653 35C390.653 32.875 391.106 30.875 392.012 29C392.95 27.125 394.278 25.4688 395.997 24.0312C397.747 22.5625 399.872 21.4219 402.372 20.6094C404.903 19.7656 407.747 19.3438 410.903 19.3438C415.309 19.3438 419.091 20.0469 422.247 21.4531C425.434 22.8594 427.872 24.7969 429.559 27.2656C431.278 29.7031 432.137 32.4844 432.137 35.6094H418.637C418.637 34.2969 418.356 33.125 417.794 32.0938C417.262 31.0312 416.419 30.2031 415.262 29.6094C414.137 28.9844 412.669 28.6719 410.856 28.6719C409.356 28.6719 408.059 28.9375 406.966 29.4688C405.872 29.9688 405.028 30.6562 404.434 31.5312C403.872 32.375 403.591 33.3125 403.591 34.3438C403.591 35.125 403.747 35.8281 404.059 36.4531C404.403 37.0469 404.95 37.5938 405.7 38.0938C406.45 38.5938 407.419 39.0625 408.606 39.5C409.825 39.9062 411.325 40.2812 413.106 40.625C416.762 41.375 420.028 42.3594 422.903 43.5781C425.778 44.7656 428.059 46.3906 429.747 48.4531C431.434 50.4844 432.278 53.1562 432.278 56.4688C432.278 58.7188 431.778 60.7812 430.778 62.6562C429.778 64.5312 428.341 66.1719 426.466 67.5781C424.591 68.9531 422.341 70.0312 419.716 70.8125C417.122 71.5625 414.2 71.9375 410.95 71.9375C406.231 71.9375 402.231 71.0938 398.95 69.4062C395.7 67.7188 393.231 65.5781 391.544 62.9844C389.887 60.3594 389.059 57.6719 389.059 54.9219H401.856C401.919 56.7656 402.387 58.25 403.262 59.375C404.169 60.5 405.309 61.3125 406.684 61.8125C408.091 62.3125 409.606 62.5625 411.231 62.5625C412.981 62.5625 414.434 62.3281 415.591 61.8594C416.747 61.3594 417.622 60.7031 418.216 59.8906C418.841 59.0469 419.153 58.0781 419.153 56.9844ZM470.688 20.2812V29.8438H441.156V20.2812H470.688ZM448.469 7.76562H461.969V55.7188C461.969 57.1875 462.156 58.3125 462.531 59.0938C462.938 59.875 463.531 60.4219 464.312 60.7344C465.094 61.0156 466.078 61.1562 467.266 61.1562C468.109 61.1562 468.859 61.125 469.516 61.0625C470.203 60.9688 470.781 60.875 471.25 60.7812L471.297 70.7188C470.141 71.0938 468.891 71.3906 467.547 71.6094C466.203 71.8281 464.719 71.9375 463.094 71.9375C460.125 71.9375 457.531 71.4531 455.312 70.4844C453.125 69.4844 451.438 67.8906 450.25 65.7031C449.062 63.5156 448.469 60.6406 448.469 57.0781V7.76562ZM506.519 71.9375C502.581 71.9375 499.05 71.3125 495.925 70.0625C492.8 68.7812 490.144 67.0156 487.956 64.7656C485.8 62.5156 484.144 59.9062 482.987 56.9375C481.831 53.9375 481.253 50.75 481.253 47.375V45.5C481.253 41.6562 481.8 38.1406 482.894 34.9531C483.987 31.7656 485.55 29 487.581 26.6562C489.644 24.3125 492.144 22.5156 495.081 21.2656C498.019 19.9844 501.331 19.3438 505.019 19.3438C508.612 19.3438 511.8 19.9375 514.581 21.125C517.362 22.3125 519.691 24 521.566 26.1875C523.472 28.375 524.909 31 525.878 34.0625C526.847 37.0938 527.331 40.4688 527.331 44.1875V49.8125H487.019V40.8125H514.066V39.7812C514.066 37.9062 513.722 36.2344 513.034 34.7656C512.378 33.2656 511.378 32.0781 510.034 31.2031C508.691 30.3281 506.972 29.8906 504.878 29.8906C503.097 29.8906 501.566 30.2812 500.284 31.0625C499.003 31.8438 497.956 32.9375 497.144 34.3438C496.362 35.75 495.769 37.4062 495.362 39.3125C494.987 41.1875 494.8 43.25 494.8 45.5V47.375C494.8 49.4062 495.081 51.2812 495.644 53C496.237 54.7188 497.066 56.2031 498.128 57.4531C499.222 58.7031 500.534 59.6719 502.066 60.3594C503.628 61.0469 505.394 61.3906 507.362 61.3906C509.8 61.3906 512.066 60.9219 514.159 59.9844C516.284 59.0156 518.112 57.5625 519.644 55.625L526.206 62.75C525.144 64.2812 523.691 65.75 521.847 67.1562C520.034 68.5625 517.847 69.7188 515.284 70.625C512.722 71.5 509.8 71.9375 506.519 71.9375ZM553.319 31.3438V71H539.819V20.2812H552.522L553.319 31.3438ZM568.6 19.9531L568.366 32.4688C567.709 32.375 566.912 32.2969 565.975 32.2344C565.069 32.1406 564.241 32.0938 563.491 32.0938C561.584 32.0938 559.928 32.3438 558.522 32.8438C557.147 33.3125 555.991 34.0156 555.053 34.9531C554.147 35.8906 553.459 37.0312 552.991 38.375C552.553 39.7188 552.303 41.25 552.241 42.9688L549.522 42.125C549.522 38.8438 549.85 35.8281 550.506 33.0781C551.162 30.2969 552.116 27.875 553.366 25.8125C554.647 23.75 556.209 22.1562 558.053 21.0312C559.897 19.9062 562.006 19.3438 564.381 19.3438C565.131 19.3438 565.897 19.4062 566.678 19.5312C567.459 19.625 568.1 19.7656 568.6 19.9531Z" fill="#F7F1F8"/>
</g>
<defs>
<filter id="filter0_d_96_90" x="0.196777" y="0.265625" width="572.403" height="79.6719" filterUnits="userSpaceOnUse" color-interpolation-filters="sRGB">
<feFlood flood-opacity="0" result="BackgroundImageFix"/>
<feColorMatrix in="SourceAlpha" type="matrix" values="0 0 0 0 0 0 0 0 0 0 0 0 0 0 0 0 0 0 127 0" result="hardAlpha"/>
<feOffset dy="4"/>
<feGaussianBlur stdDeviation="2"/>
<feComposite in2="hardAlpha" operator="out"/>
<feColorMatrix type="matrix" values="0 0 0 0 0 0 0 0 0 0 0 0 0 0 0 0 0 0 0.25 0"/>
<feBlend mode="normal" in2="BackgroundImageFix" result="effect1_dropShadow_96_90"/>
<feBlend mode="normal" in="SourceGraphic" in2="effect1_dropShadow_96_90" result="shape"/>
</filter>
</defs>
</svg>
